<mxfile host="65bd71144e">
    <diagram id="iNjvpDUOYDp4CXKnty8s" name="PÃ¡gina-1">
        <mxGraphModel dx="678" dy="541" grid="1" gridSize="10" guides="1" tooltips="1" connect="1" arrows="1" fold="1" page="1" pageScale="1" pageWidth="827" pageHeight="1169" background="none" math="0" shadow="0">
            <root>
                <mxCell id="0"/>
                <mxCell id="1" parent="0"/>
                <mxCell id="2" value="Customer" style="swimlane;fontStyle=0;childLayout=stackLayout;horizontal=1;startSize=26;fillColor=none;horizontalStack=0;resizeParent=1;resizeParentMax=0;resizeLast=0;collapsible=1;marginBottom=0;" vertex="1" parent="1">
                    <mxGeometry x="10" y="120" width="140" height="156" as="geometry"/>
                </mxCell>
                <mxCell id="3" value="_id: ObjectId" style="text;strokeColor=none;fillColor=none;align=left;verticalAlign=top;spacingLeft=4;spacingRight=4;overflow=hidden;rotatable=0;points=[[0,0.5],[1,0.5]];portConstraint=eastwest;" vertex="1" parent="2">
                    <mxGeometry y="26" width="140" height="26" as="geometry"/>
                </mxCell>
                <mxCell id="4" value="name: String" style="text;strokeColor=none;fillColor=none;align=left;verticalAlign=top;spacingLeft=4;spacingRight=4;overflow=hidden;rotatable=0;points=[[0,0.5],[1,0.5]];portConstraint=eastwest;" vertex="1" parent="2">
                    <mxGeometry y="52" width="140" height="26" as="geometry"/>
                </mxCell>
                <mxCell id="5" value="phone: String" style="text;strokeColor=none;fillColor=none;align=left;verticalAlign=top;spacingLeft=4;spacingRight=4;overflow=hidden;rotatable=0;points=[[0,0.5],[1,0.5]];portConstraint=eastwest;" vertex="1" parent="2">
                    <mxGeometry y="78" width="140" height="26" as="geometry"/>
                </mxCell>
                <mxCell id="6" value="id_document: String" style="text;strokeColor=none;fillColor=none;align=left;verticalAlign=top;spacingLeft=4;spacingRight=4;overflow=hidden;rotatable=0;points=[[0,0.5],[1,0.5]];portConstraint=eastwest;" vertex="1" parent="2">
                    <mxGeometry y="104" width="140" height="26" as="geometry"/>
                </mxCell>
                <mxCell id="7" value="address: String" style="text;strokeColor=none;fillColor=none;align=left;verticalAlign=top;spacingLeft=4;spacingRight=4;overflow=hidden;rotatable=0;points=[[0,0.5],[1,0.5]];portConstraint=eastwest;" vertex="1" parent="2">
                    <mxGeometry y="130" width="140" height="26" as="geometry"/>
                </mxCell>
                <mxCell id="8" value="Sale" style="swimlane;fontStyle=0;childLayout=stackLayout;horizontal=1;startSize=26;fillColor=none;horizontalStack=0;resizeParent=1;resizeParentMax=0;resizeLast=0;collapsible=1;marginBottom=0;" vertex="1" parent="1">
                    <mxGeometry x="310" y="120" width="140" height="130" as="geometry"/>
                </mxCell>
                <mxCell id="9" value="_id: ObjectId" style="text;strokeColor=none;fillColor=none;align=left;verticalAlign=top;spacingLeft=4;spacingRight=4;overflow=hidden;rotatable=0;points=[[0,0.5],[1,0.5]];portConstraint=eastwest;" vertex="1" parent="8">
                    <mxGeometry y="26" width="140" height="26" as="geometry"/>
                </mxCell>
                <mxCell id="10" value="datetime: Date Time" style="text;strokeColor=none;fillColor=none;align=left;verticalAlign=top;spacingLeft=4;spacingRight=4;overflow=hidden;rotatable=0;points=[[0,0.5],[1,0.5]];portConstraint=eastwest;" vertex="1" parent="8">
                    <mxGeometry y="52" width="140" height="26" as="geometry"/>
                </mxCell>
                <mxCell id="39" value="number: Number" style="text;strokeColor=none;fillColor=none;align=left;verticalAlign=top;spacingLeft=4;spacingRight=4;overflow=hidden;rotatable=0;points=[[0,0.5],[1,0.5]];portConstraint=eastwest;" vertex="1" parent="8">
                    <mxGeometry y="78" width="140" height="26" as="geometry"/>
                </mxCell>
                <mxCell id="11" value="customer_id: ObjectId" style="text;strokeColor=none;fillColor=none;align=left;verticalAlign=top;spacingLeft=4;spacingRight=4;overflow=hidden;rotatable=0;points=[[0,0.5],[1,0.5]];portConstraint=eastwest;" vertex="1" parent="8">
                    <mxGeometry y="104" width="140" height="26" as="geometry"/>
                </mxCell>
                <mxCell id="14" value="n" style="endArrow=open;html=1;endSize=12;startArrow=diamondThin;startSize=14;startFill=1;edgeStyle=orthogonalEdgeStyle;align=left;verticalAlign=bottom;entryX=0.969;entryY=-0.138;entryDx=0;entryDy=0;entryPerimeter=0;exitX=-0.019;exitY=0.093;exitDx=0;exitDy=0;exitPerimeter=0;" edge="1" parent="1" source="8" target="3">
                    <mxGeometry x="-0.7599" y="-10" relative="1" as="geometry">
                        <mxPoint x="300" y="130" as="sourcePoint"/>
                        <mxPoint x="270" y="290" as="targetPoint"/>
                        <Array as="points">
                            <mxPoint x="220" y="130"/>
                            <mxPoint x="220" y="142"/>
                        </Array>
                        <mxPoint as="offset"/>
                    </mxGeometry>
                </mxCell>
                <mxCell id="16" value="Product" style="swimlane;fontStyle=0;childLayout=stackLayout;horizontal=1;startSize=26;fillColor=none;horizontalStack=0;resizeParent=1;resizeParentMax=0;resizeLast=0;collapsible=1;marginBottom=0;" vertex="1" parent="1">
                    <mxGeometry x="550" y="320" width="140" height="156" as="geometry"/>
                </mxCell>
                <mxCell id="17" value="_id: ObjectId" style="text;strokeColor=none;fillColor=none;align=left;verticalAlign=top;spacingLeft=4;spacingRight=4;overflow=hidden;rotatable=0;points=[[0,0.5],[1,0.5]];portConstraint=eastwest;" vertex="1" parent="16">
                    <mxGeometry y="26" width="140" height="26" as="geometry"/>
                </mxCell>
                <mxCell id="18" value="description: String" style="text;strokeColor=none;fillColor=none;align=left;verticalAlign=top;spacingLeft=4;spacingRight=4;overflow=hidden;rotatable=0;points=[[0,0.5],[1,0.5]];portConstraint=eastwest;" vertex="1" parent="16">
                    <mxGeometry y="52" width="140" height="26" as="geometry"/>
                </mxCell>
                <mxCell id="19" value="unit: String" style="text;strokeColor=none;fillColor=none;align=left;verticalAlign=top;spacingLeft=4;spacingRight=4;overflow=hidden;rotatable=0;points=[[0,0.5],[1,0.5]];portConstraint=eastwest;" vertex="1" parent="16">
                    <mxGeometry y="78" width="140" height="26" as="geometry"/>
                </mxCell>
                <mxCell id="20" value="price: Number" style="text;strokeColor=none;fillColor=none;align=left;verticalAlign=top;spacingLeft=4;spacingRight=4;overflow=hidden;rotatable=0;points=[[0,0.5],[1,0.5]];portConstraint=eastwest;" vertex="1" parent="16">
                    <mxGeometry y="104" width="140" height="26" as="geometry"/>
                </mxCell>
                <mxCell id="42" value="supplier_id: ObjectId&#10;" style="text;strokeColor=none;fillColor=none;align=left;verticalAlign=top;spacingLeft=4;spacingRight=4;overflow=hidden;rotatable=0;points=[[0,0.5],[1,0.5]];portConstraint=eastwest;" vertex="1" parent="16">
                    <mxGeometry y="130" width="140" height="26" as="geometry"/>
                </mxCell>
                <mxCell id="21" value="SaleItem" style="swimlane;fontStyle=0;childLayout=stackLayout;horizontal=1;startSize=26;fillColor=none;horizontalStack=0;resizeParent=1;resizeParentMax=0;resizeLast=0;collapsible=1;marginBottom=0;" vertex="1" parent="1">
                    <mxGeometry x="310" y="320" width="140" height="104" as="geometry"/>
                </mxCell>
                <mxCell id="23" value="order: Number" style="text;strokeColor=none;fillColor=none;align=left;verticalAlign=top;spacingLeft=4;spacingRight=4;overflow=hidden;rotatable=0;points=[[0,0.5],[1,0.5]];portConstraint=eastwest;" vertex="1" parent="21">
                    <mxGeometry y="26" width="140" height="26" as="geometry"/>
                </mxCell>
                <mxCell id="41" value="quantity: Number" style="text;strokeColor=none;fillColor=none;align=left;verticalAlign=top;spacingLeft=4;spacingRight=4;overflow=hidden;rotatable=0;points=[[0,0.5],[1,0.5]];portConstraint=eastwest;" vertex="1" parent="21">
                    <mxGeometry y="52" width="140" height="26" as="geometry"/>
                </mxCell>
                <mxCell id="24" value="product_id: ObjectId" style="text;strokeColor=none;fillColor=none;align=left;verticalAlign=top;spacingLeft=4;spacingRight=4;overflow=hidden;rotatable=0;points=[[0,0.5],[1,0.5]];portConstraint=eastwest;" vertex="1" parent="21">
                    <mxGeometry y="78" width="140" height="26" as="geometry"/>
                </mxCell>
                <mxCell id="26" value="n" style="endArrow=open;html=1;startArrow=diamondThin;startFill=1;align=left;verticalAlign=bottom;exitX=0.429;exitY=0;exitDx=0;exitDy=0;exitPerimeter=0;entryX=0.424;entryY=0.99;entryDx=0;entryDy=0;entryPerimeter=0;" edge="1" parent="1" source="21" target="11">
                    <mxGeometry x="-1" y="-10" relative="1" as="geometry">
                        <mxPoint x="370" y="310" as="sourcePoint"/>
                        <mxPoint x="370" y="230" as="targetPoint"/>
                        <Array as="points"/>
                        <mxPoint as="offset"/>
                    </mxGeometry>
                </mxCell>
                <mxCell id="27" value="1" style="endArrow=open;html=1;endSize=12;startArrow=diamondThin;startSize=14;startFill=1;edgeStyle=orthogonalEdgeStyle;align=left;verticalAlign=bottom;" edge="1" parent="1">
                    <mxGeometry x="-0.8" y="10" relative="1" as="geometry">
                        <mxPoint x="450" y="360" as="sourcePoint"/>
                        <mxPoint x="550" y="360" as="targetPoint"/>
                        <mxPoint as="offset"/>
                    </mxGeometry>
                </mxCell>
                <mxCell id="28" value="Supplier" style="swimlane;fontStyle=0;childLayout=stackLayout;horizontal=1;startSize=26;fillColor=none;horizontalStack=0;resizeParent=1;resizeParentMax=0;resizeLast=0;collapsible=1;marginBottom=0;" vertex="1" parent="1">
                    <mxGeometry x="550" y="80" width="140" height="156" as="geometry"/>
                </mxCell>
                <mxCell id="29" value="_id: ObjectId" style="text;strokeColor=none;fillColor=none;align=left;verticalAlign=top;spacingLeft=4;spacingRight=4;overflow=hidden;rotatable=0;points=[[0,0.5],[1,0.5]];portConstraint=eastwest;" vertex="1" parent="28">
                    <mxGeometry y="26" width="140" height="26" as="geometry"/>
                </mxCell>
                <mxCell id="30" value="name: String" style="text;strokeColor=none;fillColor=none;align=left;verticalAlign=top;spacingLeft=4;spacingRight=4;overflow=hidden;rotatable=0;points=[[0,0.5],[1,0.5]];portConstraint=eastwest;" vertex="1" parent="28">
                    <mxGeometry y="52" width="140" height="26" as="geometry"/>
                </mxCell>
                <mxCell id="31" value="address: String" style="text;strokeColor=none;fillColor=none;align=left;verticalAlign=top;spacingLeft=4;spacingRight=4;overflow=hidden;rotatable=0;points=[[0,0.5],[1,0.5]];portConstraint=eastwest;" vertex="1" parent="28">
                    <mxGeometry y="78" width="140" height="26" as="geometry"/>
                </mxCell>
                <mxCell id="32" value="phone: String" style="text;strokeColor=none;fillColor=none;align=left;verticalAlign=top;spacingLeft=4;spacingRight=4;overflow=hidden;rotatable=0;points=[[0,0.5],[1,0.5]];portConstraint=eastwest;" vertex="1" parent="28">
                    <mxGeometry y="104" width="140" height="26" as="geometry"/>
                </mxCell>
                <mxCell id="33" value="country: String" style="text;strokeColor=none;fillColor=none;align=left;verticalAlign=top;spacingLeft=4;spacingRight=4;overflow=hidden;rotatable=0;points=[[0,0.5],[1,0.5]];portConstraint=eastwest;" vertex="1" parent="28">
                    <mxGeometry y="130" width="140" height="26" as="geometry"/>
                </mxCell>
                <mxCell id="34" value="n" style="endArrow=open;html=1;endSize=12;startArrow=diamondThin;startSize=14;startFill=1;align=left;verticalAlign=bottom;exitX=0.5;exitY=0;exitDx=0;exitDy=0;entryX=0.496;entryY=1.077;entryDx=0;entryDy=0;entryPerimeter=0;" edge="1" parent="1" source="16" target="33">
                    <mxGeometry x="-0.7578" y="-10" relative="1" as="geometry">
                        <mxPoint x="460" y="276" as="sourcePoint"/>
                        <mxPoint x="620" y="276" as="targetPoint"/>
                        <mxPoint as="offset"/>
                    </mxGeometry>
                </mxCell>
                <mxCell id="35" value="" style="shape=stencil(lZ3ZrhzHDYafRreN2pdrJ3kPA5ZjIY5lyM729iEhdJ8zP2e+lu7kY7KnuopF/lz7Q/3hj19+/P3jh5L++PPL5398/M+nn/785UP9y4dSPv32y8cvn/60f32of/1Qf/j585ePf//y+V+//fT1v3//0Sn9X//8/G9/wn+/8tVy5O1cJf3v61/Kkb7+4W9f6X/99Nt7+nQUpff/ekVf1lGn0NcM9PNIWek70PejLKVfQF/Px30jfT7q+I715H20sD+wn3ke63v2M4+j6X5mWk//vvPN7chF6RvQ235Wpaf1l6MnXT/R52PpeTU4L6NvTejnBPp07Mf9rEcG+TT6XoW+8fPTFvoF9Pvoj6/bTvl7QS63pR0bpGEd7fHp/RjwsvNc6kk+jgpnNc+bfZJPFJ1xzC3kE052HOVx7evosDP9mI+L2aciekFeHsXeDi4DfTtmU/oNW2nH+Cj2Jqi0/HrsR7VmFycnopfXNXo62qqSYBc543ryVPoF6ynnblz07ZTsF/RD3rez3j+6nJfJB66nyf7PI4NwlnBe68iV6EXNmiEoTC9qMKF8Xlr4os+sB48tar/g/udTb1z09Rik1/R8TcIXvG9WVWL3Ge3KseT5E3VP1vto6mHg84fQ73PHXtCr2s+omO10HuXTgNbE54vurA3lOau81Y76JB/p8X7VcWzYz6TyU9epf1/Ry/uaJQP9Y/SP8t/SqcFe0Iv8tIx2NJ3SeNHX01S+oBdj1AwIwf0yerHTpq/gfI3+cX+amT8436T6sK0jwf1KKs9tnxL4iv5x/3u62c/+uJ5ebt5X6esJdF/RP55v76fG/sb138nzeJSHvtC+hP3v+zzxb5OHkdGeJoW14wLGr+7v4/sO20/Ub+XRbRmGcAjX6v6McXS0j2K/xsT1FJXPsdGeVnUzZ0J5bgqEZ0b71U6v4KIvKJ+Xdr3o7RdBHkZYf0e8MfV850D9M8+3u+gnnu8K2Jz1+TrWo/zPfUrUC0dE7N1Kp2P4gn4/7ue6sadJ/cZV8AcMX6dHiV6VPet8GqyLgY84B8xkDGjjS9ikfnqrrxh0lww1ESqrqhaNAWFcO1HVxTAxPmOwPA1l2PQOXZHcYsfNgHx/vDproyo1JK/byrraoLzEjHa6C+rkrAybhG8rHNoM191+PErrLqdGeBWXkkCBMXRyOEz45B0qepQxUmYMA8S7BFna9heyCV1jR8awyQka6sXtfgrLq2iiaI09UJY8qLCVAV96nzDuYpgnNH8VQJ1LGQYInzkaS7Z1oV4yT0NunDFQjLNWBS/GMEBVmm8yhjJQNMCdk6YMm8IN40SXF8M+PZjnDFMBjzFQAMf9makMZOHMoZHIojGQ1nCPJjAghimnbL5nAFkyn6aHdyDUZk6KwCRnoF8I4WZjGHDSbWo89Y7BXjG8NEUq3FGJ20rQrQR1z+dgrko8ODpp81VylCWKNg6Fwy6t9A5L8fZm/GzuSjw4ukAj6qWNkfwRQlI3d9o8FgmFu9aAXRoX/nrHQIbdGHb4BVJk5hRJmMAYKJxvXpHu0sL8jrlFOyhjSjC4XyTbOhFruGMUGCacg3lGcyhDJ1+jnoLwjqFR3qAF3ToxGmrOkdppzh2YdyTxOLPTFH8090jykG7YQS8Zg8rSQCVgDlULDJRqM4Yt79AxA2IuWIQ/jV56a5TBGAg6mNOmB3eZ+lcMilsbaj5z81S86+lqvmIYAbeS9l4hNLHZtTeGERgqiMaKiizzLgW3zP0HOod2Kvd3DBQOMIYRnCaSVvM8JUBhbhlua1dZMsePVOUKYN3/Qrs0TkfyvXtMSwrofjVMEtgrSnLbToas6Lpg7bswBQHdFfK3d3GQpD6QqQVSZCZqIhqu2phBLJBpW0pV7pCLM33eYVv9QsqSKga7TEfkEK0jzWcMYnYnp8tMz4m6H+v0il4xiDI2y03usSl3yaB6hJUiZENTuqMidHCr/CitI6Ne2ktDXoYCC21rMFl9YtbJAdvjFe0dcatjSPmFijEBB85SopAxke3Q/BHNmEdBBsXBv6SGFpbQOIMUWTAS8CVJMubmAtlLC0M57eorBrlA5mxSFM6huZS5bIz/+kk/Cp952HgO64xiXAz9bkni+NV2J96Sk/ecKou3+NM1Y1LJL9DjOVSuAnFo/rhLZSO6d2ge8tSEyFwJSH3VRFTpSFsy/wMjujukHrwqiJY0Tp/qYuCwncfckjKg1uiarfB8EN2HpljDy+jopWsoo8uYHdih4KQkVvdZI4l5s+ZLeoHywuzAW5T7Ypjo7RqaEWnNg7H3UlnyKhta0tS0WmZZWqFmzAsWKY81NDHlhUWE7scZeH/HkBiGSqlErpiaNZQq2NvzNrRLQbxzQX96NdXennuik26azn3Lbr1ikPBpzoyMq7oDOWHUwRi0AivxS5cgrYlFowQXH9NxK8ZBMI7orquWFJLKcOQvLhaKxdwh8YVe5Vx6/znMb36CenCIcOdQsDc5xBIyfYwYzKuQ2MHEkhJzKqSmZCJum0X3316I42ICFwaitrHVlnO8xzwQqdni6tsRYlwdk7+jhZonlGdzP7SG7CzKek6fNYlT0fE050NrCtF37gEQFjSY/YopXgoCYUi/KkTf6Ck3/laB9EbfKAsQ5Dmjf9dDqX1Gr7mHGlwuOfYKrSL0k54fIm2J9yepPFxFbk/p3S/T9ZPFaCESntCFb5f6e0dPJUBTcSwn9VuEHpiiN/rclZ7e97re7+SHnt8UuGfORxatueSahJY1+JUxTRDznVdR2VN680DD8zERvuP7kn30DK/eL5Jnc3AVKZ6BsOf0Q+3dLb3Yl4z3sXYNVGS0v56VV/khefY6AdW32GJQ1EEpnJIvUZ9TQrGWAIsR5NYSzxeLEGKNPstPifaF8EAtGsrlaIPvj66H4h819kigM1aLtpZldKJrVTc9YyrH6Iuuh+y10Tc9X7KnTq/rJ/3zjJ7sUQ1h64z40OijfPL+iP0qqP9r0fzH7X2UmvKb1s0YwrirI6qqr7Bmp2gUM2NJ8LP7SCXx9QrpvJOHm/Xo8ylb6vdR5YHwrd9H1T9YQFQ0pHpzH7+XvmkdZGb9HFpDE7bAeDw34CuiD/YxsTwE+3sVyX+jfU98fwN+YHxYt/aE3ODJpHGghNE1w1eRnoq3ivoXN/i5atIsob0zPLmUnuyd4VXJgCXU54aHk66fAkDeIaP0iG+fyA/Zr7Y01ZQwKm3+SFJ/hFqXjX6qv0P+u/lTgpcStvz0J/JD/kgv0b+78TebPh9baIP+ufEf+5P7SB29XatO2Z8yf7+pPaJESJ+aE8gYTu9LS38z6s+R1H4VvC8j9kDy82tIqKF9HF3xXkN5GKFhuyG+Gkv3v2PKcWy1Lx2fP7PGZwa32BSNr3I9ygz6c2BSdjYNWA8s8plDy+pu4pkzVE3cFaRJvGhyxVuIt0y8jyvp/eUW6RV63hYnAEIGbSE+XCHetfC+rBIq/Lh6KFZbo37zIq6Q8SCFbgwS4M7c9LaCBs0JQwQrlMXkzG1gPeg4BukrCHUuGMUyBl0S1z4Yg6Y9uY5mzRBnrQgsY12Zt0lRnjQMcTEGCs2uUMqQO9oCYxBdlAfL0tZgqDFgVj9Yp8zpGC9Ek21ddyl0jW9yDfuuYRZQ4mKJqv1yDhFoSS2MMeAY1Q4F42ZkcUmh0t9bVemlZxjYw5MV3oq3L4aOTSA75AG9W5V+ITQfeA0KM2j9xsLu+1iIVrhbwauNZF5C4iKupc6ED3DgX5BshcdbuOpLi4e4FHpv9V/dwybh25rQrFy4/9YNdDHwVBLv1RGIxzkRY5AYhXupXK4nN85r424YZElcfZdTwCVtYdOf/4QkTjdGNuJbd0517K2heS+DvClSfNwm835uTk76cj09yhdC0FXninEvjhM4nLkGd2ottHkoOMxqKnYYnUubh6oNL9qlbY1VvotroUOLqrfbkGiE1khzUyir7jZLUHpltVFVbZjjgZa9aJzGPQ9iyE+GC5CntFOYFsCtYN7NIK5D4t6Arc3I66YCauk7ePs//cIKje2Ny+9i90HHxkXvb5AlcQuSl649nvTiihrv0ZBfWFwcF7tANsb8fMKBdBRxUCgWljlupF2qGmUwBixSDBMIN4+6Mr9Pu6IqBv5WSIQYA9a6ZfUHvCuK0HrW1MPmO23XRWIluyPCMgaZbrFvmmtSaBXuWH7h3WmypIHF00/63wbqVmPQAQODOx1n6LsaGBKY40k3P9URz66Flnvitpqu1sZ2Ltr1VpquDJTmnlmVsVepU11gmL20GS+NHRqqeZiSGdkUfoFclBFUpeN3ZhDMtxfah9FDMefmgT7tSXM+7lJ9wkAWaBQFWJsrxkcKgx42RtT6Dkpgo9n1tvPQp072wRvbwzuQi9K7hh0cK1OVXYjKGgPFi3ooy9ib6xADmtncUdTCzF/3KCiT92xIAumlNjS0/87Lec7RgoG4+YkaRnRsDF+3ovGfN9/uOUMKynXfJWy1oJtProaI941s1PlEvrEGbWhN0M3EjdrDFJ2NYTXP4sdZEjTJtWpZx94oGrWE0UGLC2VC4e/dQJkU3oFNUIknPTEqUFaAlZPnJcWT5uxPCdlqxz/0Du1JOz954F5uLQfXEN57/i8AV3KzPJgZeudxymwOYKMg6POUcFGGQnNpownKd8O6RvAHCK3nqWWN3llFI81CA9xOiKVzKOxdbHd9lrH4ljwvKbcwx21hYCNX7dVw95Tntmsr/MA4RQ5RBGOgOEUOTpA3StEvZI15rcZT1sLs9sV9hU+GCN5EpML8vcKBkOCwZ24pUqSxuIRmaWPx20iQ59A+tM0vbrFRwfbZAgRZVc+bA4UtG9pxZf4Tlbx21cGTpyI3rUD00TVkncP6M6s7jX6474RTyqX7fWws2Q2GdvDsn6x+lflBpOpChdrNzIKk8jz46wVhfMwo6C5cQ03ehZQpZJDUafOpvLh+GSB1O/VXAtA+VRinLovluJ1arPR3U5HFft9OXdYBEFxSlTTm2diQhbCtT6Xm85W5BjxNMciDT9XGKdzl8bx8ajfLp0ztrogaw8duGpeIBzR0O9VcnIPKLahJLaTXwII+CfauspFPWtFcOZUcpj/Vu6npEnmt/HWWpPa3cotBVnl2C45fMZAQjbfcor4V76/cTMt9MouBEuc5fEynnZnGV/QyxaBiiW9AWP5VCNxPwXz+F9xPAfc3JbtZYW5mXzeHaiQeppdD1QwP9QmQ9Q3qv7LvUmHaERPHDomGeK+EilT+KkfAJ5n1W1X76Cgf8ZIWFd20mIWOQG6JaqEjJKFzGJKtOaE96sG9RXHrIYeI1jf0F3O95dBP9gws/58qO4O797X4nC1pGInduLZRWzcbl02pXqucRNe4dsVCbzt0qaYriDJyGHV68023HL8xh1o8fjwIUzw5XiuMmeeQisj8rZseGxmphjOP8HElRNk5TEHiRtW84/MJlUQzx41ocXJ55uhjD8NPmD5McssYKXe1EQYVkFYOsJa90hoi8feNrd/VSF3UrbtppC4aprht7AuDFjBqX2JjB80Bq9GMciN1iY3gFPl99vybxuuwfpK3uD/3jdSh8ZQbPeV8bxu7v++bobf09o+3D5T+/OnXX79+3/T9/9cPmtqfvn4Mtf71/w==);lineShape=1;" vertex="1" parent="1">
                    <mxGeometry x="258.0529951215335" y="75.98750058280666" width="248.63026481365662" height="373.99595038736464" as="geometry"/>
                </mxCell>
            </root>
        </mxGraphModel>
    </diagram>
</mxfile>